<svg xmlns="http://www.w3.org/2000/svg" width="43.906" height="33.94" viewBox="0 0 43.906 33.94">
  <defs>
    <style>
      .cls-1 {
        fill: #507a95;
        fill-rule: evenodd;
      }
    </style>
  </defs>
  <path id="galactic-arcades.svg" class="cls-1" d="M463,3178.02a3,3,0,1,1,3-3A3,3,0,0,1,463,3178.02Zm0-4a1,1,0,1,0,1,1A1,1,0,0,0,463,3174.02Zm-2,2h-9.986a1,1,0,0,1,0-2h9.986A1,1,0,0,1,461.007,3176.02Zm-23.152,8.73h0c-3.968,0-9.893-1.58-15.589-9.12a1.008,1.008,0,0,1,0-1.21c5.694-7.54,11.62-9.13,15.588-9.13a19.172,19.172,0,0,1,9.678,2.88,1,1,0,0,1,.494.86v11.99a1,1,0,0,1-.494.86A19.152,19.152,0,0,1,437.855,3184.75Zm-13.531-9.73c6.236,7.89,13.732,9.82,21.7,5.42v-10.83C438.056,3165.2,430.559,3167.14,424.324,3175.02Zm16.712,12.99c-3.693,0-4.9-3.82-4.95-3.99a1,1,0,0,1,1.91-.58h0c0.033,0.1.835,2.57,3.04,2.57A1,1,0,0,1,441.036,3188.01ZM431.009,3196h-3.787a1.852,1.852,0,0,1-1.619-.78,2.761,2.761,0,0,1-.1-2.36l2.1-9.56c0.426-1.73-.234-2.33-0.67-2.72l0.63-.78,0.673-.74-0.673.74,0.712-.7a4.265,4.265,0,0,1,1.273,4.66l-2.11,9.6a0.983,0.983,0,0,1-.05.16,1.912,1.912,0,0,0-.112.47l3.728,0.01a0.918,0.918,0,0,0,1.15-.84l2.927-9.93L437,3183.8l-2.931,9.94A2.854,2.854,0,0,1,431.009,3196Zm4.036-17.98a0.994,0.994,0,0,1-.779-0.37,1.013,1.013,0,0,1-.114-1.08l1.029-2.06-5.888,1.46a1,1,0,1,1-.478-1.94l7.988-1.97a0.993,0.993,0,0,1,1.132,1.41l-1.026,2.06,5.882-1.48a1.008,1.008,0,0,1,1.211.73,0.994,0.994,0,0,1-.727,1.21l-7.988,2A1,1,0,0,1,435.045,3178.02Zm-10.033-6.11a39.4,39.4,0,0,1-.951-8.87,1,1,0,0,1,.384-0.79,0.979,0.979,0,0,1,.856-0.18,26.179,26.179,0,0,1,8.482,4.2l-1.2,1.6a24.778,24.778,0,0,0-6.5-3.46,36.911,36.911,0,0,0,.866,7.01Zm34,10.1a0.992,0.992,0,0,1-1-.99v-11.99a1,1,0,1,1,2,0v11.99A0.991,0.991,0,0,1,459.01,3182.01Zm-3.994-1.99a1,1,0,0,1-1-1v-7.99a1,1,0,1,1,2,0v7.99A1,1,0,0,1,455.016,3180.02Zm-4,5.99a5,5,0,0,1-4.992-4.99,1,1,0,1,1,2,0,3,3,0,0,0,2,2.82v-17.63a3,3,0,0,0-2,2.82,1,1,0,1,1-2,0,5,5,0,0,1,4.992-4.99,0.994,0.994,0,0,1,1,1v19.97A1,1,0,0,1,451.021,3186.01Z" transform="translate(-422.094 -3162.06)"/>
</svg>
