<svg xmlns="http://www.w3.org/2000/svg" width="43.75" height="39.78" viewBox="0 0 43.75 39.78">
  <defs>
    <style>
      .cls-1 {
        fill: #507a95;
        fill-rule: evenodd;
      }
    </style>
  </defs>
  <path id="moon-landing-tour.svg" class="cls-1" d="M424.092,3010.77a0.933,0.933,0,0,1-.571-0.18,0.986,0.986,0,0,1-.24-1.38c4.3-6.11,13.221-10.37,21.689-10.37s17.386,4.26,21.69,10.37a0.993,0.993,0,0,1-1.626,1.14c-3.953-5.6-12.2-9.52-20.064-9.52s-16.112,3.92-20.064,9.52A0.978,0.978,0,0,1,424.092,3010.77ZM440,3006.8a0.993,0.993,0,0,1-.975-0.81l-5.965-30.83a1,1,0,0,1,.783-1.16l14.912-2.94a3.059,3.059,0,0,1,2.346.46,3.159,3.159,0,0,1,1.279,2.07,1.291,1.291,0,0,0,1.512,1.04l6.752-1.24a0.987,0.987,0,0,1,.744.16,1,1,0,0,1,.414.64l3.035,16.54a1,1,0,0,1-.8,1.16l-6.754,1.25a3.3,3.3,0,0,1-3.828-2.65,1.3,1.3,0,0,0-1.516-1.04l-13.529,2.91,2.563,13.25a1,1,0,0,1-.786,1.17A1.251,1.251,0,0,1,440,3006.8Zm12.159-19.35a3.3,3.3,0,0,1,3.255,2.69,1.3,1.3,0,0,0,1.517,1.04l5.771-1.07-2.676-14.58-5.776,1.06a3.3,3.3,0,0,1-3.826-2.64,1.2,1.2,0,0,0-.453-0.8,1.11,1.11,0,0,0-.841-0.14l-13.93,2.75,2.835,14.65,13.523-2.91A3.074,3.074,0,0,1,452.158,2987.45Zm2.277,3.86a1,1,0,0,1-.977-0.81l-3.036-16.55a0.994,0.994,0,1,1,1.956-.36l3.035,16.55a0.987,0.987,0,0,1-.8,1.15A1.127,1.127,0,0,1,454.435,2991.31Zm-1.865,19.47a0.986,0.986,0,0,1-.289-0.05c-2.166-.66-5.719-2.32-5.288-4.36a1.684,1.684,0,0,1,.838-1.12c1.291-.77,3.809-0.42,5.734.16,2.847,0.86,5.67,2.75,5.288,4.57a0.994,0.994,0,0,1-1.96-.32c-0.157-.39-1.495-1.62-3.9-2.34a8.556,8.556,0,0,0-3.895-.45,9.131,9.131,0,0,0,3.763,1.96A1,1,0,0,1,452.57,3010.78Zm-19.179-.01a2.449,2.449,0,0,1-1.915-.77,1.814,1.814,0,0,1-.394-1.51,3.209,3.209,0,0,1,1.677-2.1c1.493-.84,3.216-0.76,4.02.18a0.994,0.994,0,0,1-1.512,1.29,1.826,1.826,0,0,0-1.525.26,1.657,1.657,0,0,0-.672.63,2.039,2.039,0,0,0,1.45-.29,0.991,0.991,0,0,1,1.353.38,1,1,0,0,1-.382,1.36A4.409,4.409,0,0,1,433.391,3010.77Z" transform="translate(-423.094 -2971)"/>
</svg>
