<svg xmlns="http://www.w3.org/2000/svg" width="52" height="44.97" viewBox="0 0 52 44.97">
  <defs>
    <style>
      .cls-1 {
        fill: #507a95;
        fill-rule: evenodd;
      }
    </style>
  </defs>
  <path id="rover-exepditions.svg" class="cls-1" d="M995.774,3181.5a9.177,9.177,0,0,0-3.241.59V3169a11,11,0,0,0,10.817,1.09,0.821,0.821,0,0,0,.49-0.62,0.812,0.812,0,0,0-.23-0.74l-6.129-6.15,2.969-2.97a0.858,0.858,0,0,0,0-1.19,0.838,0.838,0,0,0-1.189,0l-2.966,2.97-6.128-6.14a0.843,0.843,0,0,0-1.361.25,11.082,11.082,0,0,0,2.05,12.03v12.24H985.43v-4.56a0.84,0.84,0,0,0,0-1.68v-2.19a0.839,0.839,0,1,0-1.677,0v2.19a0.84,0.84,0,0,0,0,1.68v13.02h-5.914v-6.92h0.279a0.84,0.84,0,0,0,0-1.68h-8.344v-7.61a2.515,2.515,0,0,0-4.888-.84H962.98a4.206,4.206,0,0,0-4.109-3.37h-2.237a0.845,0.845,0,0,0,0,1.69h2.237a2.521,2.521,0,0,1,2.516,2.52v9.52a9.248,9.248,0,1,0,9.713,11.73h15.8A9.228,9.228,0,1,0,995.774,3181.5Zm-5.864-24.13,11.58,11.61A9.37,9.37,0,0,1,989.91,3157.37Zm-23.491,14.65a0.839,0.839,0,1,1,1.678,0v7.61h-1.678v-7.61h0Zm-3.354.84h1.677v8.99a9.279,9.279,0,0,0-1.677-.31v-8.68Zm-0.839,25.46a7.57,7.57,0,1,1,7.548-7.57A7.571,7.571,0,0,1,962.226,3198.32Zm4.193-15.8v-1.21h9.742v6.92H971.1A9.276,9.276,0,0,0,966.419,3182.52Zm20.169,9.07H971.412c0.025-.28.04-0.56,0.04-0.84s-0.015-.56-0.04-0.84h15.176c-0.025.28-.04,0.56-0.04,0.84S986.563,3191.31,986.588,3191.59Zm0.312-3.36h-1.47v-6.78h5.426v1.48A9.257,9.257,0,0,0,986.9,3188.23Zm8.874,10.09a7.57,7.57,0,1,1,7.546-7.57A7.57,7.57,0,0,1,995.774,3198.32Zm0-12.33a4.758,4.758,0,0,0-4.753,4.76,4.707,4.707,0,0,0,.277,1.6,0.834,0.834,0,0,0,1.072.51,0.847,0.847,0,0,0,.507-1.08,3.074,3.074,0,1,1,2.9,2.05,3.026,3.026,0,0,1-1.032-.18,0.844,0.844,0,0,0-.565,1.59,4.827,4.827,0,0,0,1.6.28A4.765,4.765,0,0,0,995.774,3185.99Zm-33.548,0a4.758,4.758,0,0,0-4.753,4.76,4.707,4.707,0,0,0,.277,1.6,0.834,0.834,0,0,0,1.072.51,0.847,0.847,0,0,0,.507-1.08,3.074,3.074,0,1,1,2.9,2.05,3.021,3.021,0,0,1-1.032-.18,0.844,0.844,0,0,0-.565,1.59,4.818,4.818,0,0,0,1.6.28A4.765,4.765,0,0,0,962.226,3185.99Z" transform="translate(-953 -3155.03)"/>
</svg>
