<svg xmlns="http://www.w3.org/2000/svg" width="50" height="44" viewBox="0 0 50 44">
  <defs>
    <style>
      .cls-1 {
        fill: #507a95;
        fill-rule: evenodd;
      }
    </style>
  </defs>
  <path id="space-bar.svg" class="cls-1" d="M974.514,2979.59a0.954,0.954,0,0,0-.727-0.9l-9.312-2.41h0l-3.507-.9a0.98,0.98,0,0,0-1.081.42,27.423,27.423,0,0,0-3.194,7.18c-1.144,4.11-.95,7.64.562,10.21a7.433,7.433,0,0,0,3.742,3.19L957.4,3009.3l-5.177-1.34a0.974,0.974,0,0,0-1.193.68,0.958,0.958,0,0,0,.7,1.17l6.107,1.58,6.121,1.58a1.081,1.081,0,0,0,.25.03,0.971,0.971,0,0,0,.944-0.71,0.955,0.955,0,0,0-.695-1.17l-5.163-1.34,3.59-12.91a7.484,7.484,0,0,0,1.054.07c4.354,0,7.951-3.58,9.62-9.59A27.112,27.112,0,0,0,974.514,2979.59Zm-2.842,7.26c-1.424,5.12-4.315,8.18-7.736,8.18a6.026,6.026,0,0,1-1.507-.2,5.585,5.585,0,0,1-3.485-2.6,9.482,9.482,0,0,1-.924-6.04,23.152,23.152,0,0,0,3.7.29,42.356,42.356,0,0,0,5.3-.41,21.156,21.156,0,0,1,4.91-.24Q971.811,2986.34,971.672,2986.85Zm0.614-2.9a22.485,22.485,0,0,0-5.507.22,29.144,29.144,0,0,1-8.416.14c0.064-.27.135-0.55,0.213-0.83a25.391,25.391,0,0,1,2.6-6.07l1.552,0.4c-0.281.53-.541,1.08-0.743,1.52a0.978,0.978,0,0,0,.892,1.35,0.974,0.974,0,0,0,.892-0.57c0.316-.7.625-1.31,0.9-1.8l7.9,2.04A25.559,25.559,0,0,1,972.286,2983.95Zm21.882,27.44h0l-6.072,1.57C988.666,3012.81,994.168,3011.39,994.168,3011.39Zm-6.074,1.57a0.1,0.1,0,0,0-.048.01Zm12.876-4.32a0.983,0.983,0,0,0-1.194-.68l-5.177,1.34-3.591-12.92a7.433,7.433,0,0,0,3.742-3.19c1.511-2.57,1.706-6.1.562-10.21a27.394,27.394,0,0,0-3.2-7.18,0.977,0.977,0,0,0-1.08-.42l-12.821,3.31a0.954,0.954,0,0,0-.727.9,27.184,27.184,0,0,0,.763,7.01c0.006,0.03.014,0.07,0.023,0.1,0.055,0.22.111,0.43,0.171,0.65,1.669,6.01,5.266,9.59,9.62,9.59h0a7.46,7.46,0,0,0,1.053-.07l3.59,12.91-5.162,1.34a0.953,0.953,0,0,0-.7,1.17,0.969,0.969,0,0,0,.943.71,1.074,1.074,0,0,0,.25-0.03l6.12-1.58h0l6.1-1.58A0.953,0.953,0,0,0,1000.97,3008.64Zm-21.534-28.29,11.389-2.94a25.391,25.391,0,0,1,2.6,6.07c0.167,0.6.3,1.19,0.407,1.75a13.7,13.7,0,0,0-1.817-.04c-0.1-.7-0.259-1.43-0.39-2a0.979,0.979,0,0,0-1.169-.72,0.961,0.961,0,0,0-.736,1.15c0.148,0.64.265,1.22,0.344,1.73-0.442.05-.889,0.1-1.341,0.16a27.858,27.858,0,0,1-8.7.09A25.242,25.242,0,0,1,979.436,2980.35Zm8.631,14.68h0c-3.245,0-6.012-2.75-7.5-7.41a22.721,22.721,0,0,0,3.112.21,42.1,42.1,0,0,0,5.3-.42,19.252,19.252,0,0,1,5.1-.22,8.837,8.837,0,0,1-1.015,5.04,5.588,5.588,0,0,1-3.485,2.6A6.026,6.026,0,0,1,988.067,2995.03ZM976,2969a0.968,0.968,0,0,0-.977.96v2.49a0.977,0.977,0,0,0,1.953,0v-2.49A0.968,0.968,0,0,0,976,2969Zm-3.162,4.69-1.294-2.16a0.982,0.982,0,0,0-1.337-.34,0.947,0.947,0,0,0-.348,1.31l1.294,2.16a1,1,0,0,0,1.337.34A0.947,0.947,0,0,0,972.84,2973.69Zm8.954-2.5a0.982,0.982,0,0,0-1.337.34l-1.294,2.16a0.947,0.947,0,0,0,.348,1.31,1,1,0,0,0,1.337-.34l1.294-2.16A0.947,0.947,0,0,0,981.794,2971.19Zm9.107,9.36s0,0,0-.01a0.983,0.983,0,0,0-1.215-.63,0.952,0.952,0,0,0-.652,1.19,0.035,0.035,0,0,0,.006.02,0.974,0.974,0,0,0,.931.67,0.984,0.984,0,0,0,.292-0.04A0.957,0.957,0,0,0,990.9,2980.55Zm-29.158.69a0.96,0.96,0,1,1-.976.96A0.968,0.968,0,0,1,961.743,2981.24Z" transform="translate(-951 -2969)"/>
</svg>
